<?xml version="1.0" encoding="utf-8"?>
<!-- Generator: Adobe Illustrator 23.0.1, SVG Export Plug-In . SVG Version: 6.00 Build 0)  -->
<svg version="1.1" id="Layer_1" xmlns="http://www.w3.org/2000/svg" xmlns:xlink="http://www.w3.org/1999/xlink" x="0px" y="0px"
	 viewBox="0 0 300 300" style="enable-background:new 0 0 300 300;" xml:space="preserve">
<style type="text/css">
	.st0{fill:#C7E2E1;}
	.st1{font-family:'AcierBATText-Gris';}
	.st2{font-size:60px;}
	.st3{font-family:'NiagaraSolid-Reg';}
	.st4{font-size:48px;}
	.st5{font-family:'PoiretOne-Regular';}
	.st6{font-size:36px;}
	.st7{font-family:'MissStephams';}
	.st8{font-size:24px;}
	.st9{font-family:'Microsoft-Yi-Baiti';}
	.st10{font-family:'Impact';}
	.st11{font-family:'HWTMardell';}
	.st12{font-size:16px;}
	.st13{font-family:'MrDafoePro';}
	.st14{font-family:'MVBoli';}
	.st15{font-family:'ImprintMT-Shadow';}
	.st16{font-size:28px;}
	.st17{font-family:'MemoriamProInline';}
	.st18{font-size:30px;}
	.st19{font-family:'JavaneseText';}
	.st20{font-size:37px;}
</style>
<rect x="-0.22" y="-0.95" class="st0" width="301.34" height="301.01"/>
<text transform="matrix(1 0 0 1 30.6508 143.0066)" class="st1 st2">Insights</text>
<text transform="matrix(1 0 0 1 150.1139 90.658)" class="st3 st4">Knowledge </text>
<text transform="matrix(1 0 0 1 104.8122 179.584)" class="st5 st6">Experience</text>
<text transform="matrix(1 0 0 1 34.4531 87.6843)" class="st7 st8">Unpacking </text>
<text transform="matrix(6.123234e-17 -1 1 6.123234e-17 24.8833 129.478)" class="st9 st8">learning</text>
<text transform="matrix(4.187068e-03 1 -1 4.187068e-03 271.2907 94.6051)" class="st10 st8">Perspectives </text>
<text transform="matrix(1 0 0 1 8.4627 165.4902)" class="st11 st12">Speculative</text>
<text transform="matrix(-1.836970e-16 -1 1 -1.836970e-16 130.4307 98.4956)" class="st13 st12">Design</text>
<text transform="matrix(6.123234e-17 -1 1 6.123234e-17 32.6943 234.0835)" class="st14 st12">Thinking</text>
<text transform="matrix(1 0 0 1 46.0871 199.3964)" class="st15 st16">user</text>
<text transform="matrix(1 0 0 1 54.4765 235.289)" class="st17 st18">audience</text>
<text transform="matrix(1 0 0 1 149.1073 209.4496)" class="st19 st20">engage</text>
</svg>
